<?xml version="1.0" encoding="iso-8859-1"?>
<!-- Generator: Adobe Illustrator 19.0.0, SVG Export Plug-In . SVG Version: 6.00 Build 0)  -->
<svg version="1.1" id="Layer_1" xmlns="http://www.w3.org/2000/svg" xmlns:xlink="http://www.w3.org/1999/xlink" x="0px" y="0px"
	 viewBox="0 0 512.002 512.002" style="enable-background:new 0 0 512.002 512.002;" xml:space="preserve">
<path style="fill:#FFA91F;" d="M470.289,295.128c0,51.612-17.019,98.497-44.757,133.09c-29.44,36.732-70.947,59.625-116.934,59.625
	c-3.014,0-6.016-0.095-8.994-0.295h-0.012v-185.08l0.012-199.759c2.978-0.201,5.98-0.295,8.994-0.295
	c27.029,0,52.499,7.907,74.883,21.876C435.081,156.485,470.289,220.908,470.289,295.128z"/>
<g>
	<path style="fill:#E2901A;" d="M299.592,302.467l0.012-199.759c2.978-0.201,5.98-0.295,8.994-0.295
		c27.029,0,52.499,7.907,74.883,21.876c-10.79,17.09-17.823,45.514,0.922,89.184C407.295,266.787,345.945,291.583,299.592,302.467z"
		/>
	<path style="fill:#E2901A;" d="M425.531,428.219c-29.44,36.732-70.947,59.625-116.934,59.625c-3.014,0-6.016-0.095-8.994-0.295
		h-0.012v-155.12l81.998,51.848C381.59,384.277,378.032,428.219,425.531,428.219z"/>
</g>
<path style="fill:#FFA91F;" d="M398.644,295.134c0,113.979-81.632,206.555-147.355,207.997c-0.52,0.012-1.04,0.012-1.56,0.012
	c-114.889,0-208.02-93.131-208.02-208.009S134.84,87.126,249.729,87.126c0.52,0,1.04,0,1.56,0.012
	C317.012,88.579,398.644,181.155,398.644,295.134z"/>
<path style="fill:#E2901A;" d="M125.434,295.134c0-96.936,66.312-178.387,156.054-201.466c-10.204-4.051-20.38-6.316-30.2-6.531
	c-0.52-0.012-1.04-0.012-1.56-0.012c-114.889,0-208.02,93.131-208.02,208.009s93.131,208.009,208.02,208.009
	c0.52,0,1.04,0,1.56-0.013c9.82-0.215,19.995-2.48,30.199-6.531C191.746,473.521,125.434,392.07,125.434,295.134z"/>
<path style="fill:#2FCC6E;" d="M123.907,289.157c0,0-64.081-85.545-29.33-163.845c33.215-74.855,137.67-66.731,152.995-90.921
	c0.708-1.073,1.213-2.222,1.523-3.456c0.021-0.043,0.021-0.064,0.021-0.064l0.032,0.053c1.352,2.683,44.227,88.893-7.19,148.766
	C189.725,240.509,133.212,245.51,123.907,289.157z"/>
<path d="M378.347,392.527c1.067,0.421,2.166,0.619,3.249,0.619c3.534,0,6.874-2.129,8.248-5.615
	c11.721-29.733,17.664-60.82,17.664-92.397c0-36.048-8.076-72.604-23.355-105.713c-2.052-4.445-7.317-6.384-11.763-4.334
	c-4.445,2.052-6.386,7.318-4.334,11.763c14.212,30.797,21.724,64.783,21.724,98.285c0,29.342-5.528,58.241-16.429,85.896
	C371.556,385.585,373.792,390.732,378.347,392.527z"/>
<path d="M476.925,262.461c-0.668-4.85-5.139-8.241-9.99-7.571c-4.85,0.668-8.24,5.141-7.571,9.99
	c1.367,9.93,2.061,20.109,2.061,30.253c0,93.424-58.226,170.796-133.315,182.358c13.779-12.083,26.73-26.983,38.04-44.178
	c2.69-4.09,1.555-9.586-2.535-12.276c-4.09-2.691-9.586-1.555-12.276,2.535c-27.769,42.225-67.116,69.972-100.246,70.691
	c-0.455,0.009-0.91,0.011-1.363,0.009c-109.816,0-199.156-89.336-199.156-199.145c0-30.044,6.519-58.909,19.376-85.794
	c2.112-4.417,0.245-9.709-4.172-11.821c-4.417-2.112-9.71-0.245-11.821,4.173c-14.007,29.291-21.109,60.73-21.109,93.442
	c0,119.584,97.294,216.873,216.884,216.873c0.586,0,1.171,0,1.752-0.014c16.387-0.356,33.561-5.799,50.292-15.452
	c2.24,0.105,4.512,0.177,6.825,0.177c94.045,0,170.555-90.428,170.555-201.579C479.153,284.183,478.403,273.19,476.925,262.461z"/>
<path d="M116.812,294.471c1.695,2.263,4.339,3.55,7.094,3.55c0.632,0,1.271-0.069,1.904-0.207c3.396-0.747,6.041-3.41,6.765-6.81
	c4.28-20.073,21.236-31.104,44.704-46.372c20.786-13.522,46.654-30.352,71.402-59.168c22.577-26.291,28.349-57.063,27.183-84.475
	c23.597,8.649,47.724,28,67.701,54.652c1.742,2.324,4.404,3.548,7.099,3.548c1.85,0,3.716-0.577,5.309-1.772
	c3.917-2.936,4.713-8.492,1.776-12.41c-9.138-12.192-19.147-23.018-29.648-32.225c57.395,8.84,106.388,56.22,125.3,123.452
	c1.1,3.911,4.657,6.466,8.528,6.466c0.794,0,1.603-0.108,2.405-0.333c4.712-1.326,7.459-6.22,6.133-10.932
	c-22.302-79.283-83.285-133.547-153.376-137.625c-2.561-30.381-18.801-55.866-47.375-74.079
	C246.773,5.106,224.031,0.373,223.074,0.178c-4.794-0.97-9.476,2.125-10.451,6.922c-0.974,4.797,2.125,9.476,6.922,10.451
	c0.141,0.028,9.983,2.08,22.76,7.66c-0.733,0.882-1.3,1.898-1.648,3.005c-0.059,0.182-0.112,0.366-0.158,0.552
	c-0.069,0.273-0.17,0.501-0.326,0.739c-0.011,0.017-0.021,0.034-0.033,0.051c-0.021,0.033-0.044,0.066-0.065,0.099
	c-3.617,5.681-20.97,10.37-37.754,14.905c-19.403,5.243-43.551,11.767-65.163,23.743c-4.282,2.373-5.83,7.767-3.457,12.049
	c2.372,4.283,7.768,5.83,12.049,3.457c19.727-10.932,41.758-16.883,61.195-22.135c10.169-2.748,19.38-5.239,27.118-8.175
	c-10.606,35.125-29.86,49.337-51.645,65.396c-2.002,1.476-4.012,2.959-6.026,4.465h-17.893c-4.895,0-8.864,3.969-8.864,8.864
	c0,3.882,2.5,7.173,5.974,8.372c-6.042,5.784-11.9,12.336-17.378,20.18c-14.559,20.846-23.007,47.727-25.111,79.897
	c-0.32,4.885,3.381,9.104,8.267,9.423c0.197,0.013,0.392,0.02,0.587,0.02c4.632,0,8.53-3.598,8.837-8.286
	c0.799-12.223,2.593-23.532,5.344-33.902c1.703,2.189,4.3,3.429,6.987,3.429c1.375,0,2.769-0.32,4.074-0.997
	c4.346-2.254,6.042-7.604,3.788-11.95l-6.698-12.914c2.493-5.199,5.313-10.06,8.46-14.566
	c11.731-16.798,25.546-26.982,40.172-37.764c3.303-2.435,6.621-4.88,9.916-7.41v0.695c0,4.895,3.969,8.864,8.864,8.864
	s8.864-3.969,8.864-8.864v-15.967c12.15-12.127,22.933-27.644,30.166-51c8.85,28.843,16.336,77.343-15.514,114.431
	c-23.095,26.89-46.75,42.279-67.62,55.856c-19.015,12.371-36.058,23.458-45.677,40.056c-5.227-8.864-11.847-21.451-17.424-36.341
	c-14.652-39.119-15.269-74.305-1.832-104.58c4.427-9.977,10.571-18.961,18.262-26.698c3.451-3.472,3.435-9.085-0.038-12.535
	c-3.472-3.451-9.084-3.433-12.535,0.038c-9.22,9.276-16.586,20.044-21.892,32.005c-15.17,34.182-14.674,74.982,1.435,117.989
	C99.893,271.701,116.127,293.556,116.812,294.471z M299.127,92.243c-8.358-4.596-16.809-8.141-25.195-10.502
	c-3.176-20.321-9.278-37.243-13.225-46.72C283.39,49.646,296.28,68.859,299.127,92.243z"/>
<g>
</g>
<g>
</g>
<g>
</g>
<g>
</g>
<g>
</g>
<g>
</g>
<g>
</g>
<g>
</g>
<g>
</g>
<g>
</g>
<g>
</g>
<g>
</g>
<g>
</g>
<g>
</g>
<g>
</g>
</svg>
