<svg id="Capa_1" enable-background="new 0 0 512 512" height="512" viewBox="0 0 512 512" width="512" xmlns="http://www.w3.org/2000/svg"><g><path d="m298.502 22.5c-4.489 0-8.755 1.955-11.687 5.355l-8.315 9.645-23.641 185.041h15l30.371-73.322c9.046-21.839 13.702-45.245 13.702-68.883v-42.406c0-8.522-6.908-15.43-15.43-15.43z" fill="#fbbecf"/><path d="m283.932 80.335v-27.405c0-8.522-2.711-15.43-5.432-15.43l-7.3-19.466c-2.376-6.336-8.433-10.534-15.2-10.534s-12.824 4.198-15.2 10.534l-7.3 19.466-8.316-9.645c-2.931-3.4-7.198-5.355-11.686-5.355-8.522 0-15.43 6.908-15.43 15.43v42.405c0 23.638 4.656 47.044 13.702 68.883l30.371 73.322h27.719l9.698-73.322c2.888-21.838 4.374-45.245 4.374-68.883z" fill="#fbcfdb"/><path d="m120.944 60.837c-3.174 3.174-4.809 7.573-4.477 12.05l.94 12.7 114.127 147.56 10.607-10.607-30.371-73.322c-9.046-21.839-22.305-41.682-39.019-58.396l-29.985-29.985c-6.026-6.026-15.796-6.026-21.822 0z" fill="#fbbecf"/><path d="m151.537 112.035-19.378-19.378c-6.026-6.026-12.828-8.994-14.752-7.069l-18.927-8.604c-6.16-2.8-13.412-1.485-18.197 3.3s-6.1 12.036-3.3 18.197l8.603 18.926-12.7-.94c-4.477-.331-8.876 1.303-12.05 4.477-6.026 6.026-6.026 15.796 0 21.821l29.985 29.985c16.715 16.715 36.558 29.973 58.396 39.019l73.322 30.371 19.6-19.6-44.989-58.704c-13.398-17.484-28.898-35.086-45.613-51.801z" fill="#fbcfdb"/><path d="m22.5 213.498c0 4.489 1.955 8.755 5.355 11.687l9.645 8.315 185.041 23.641v-15l-73.322-30.371c-21.839-9.046-45.245-13.702-68.883-13.702h-42.406c-8.522 0-15.43 6.908-15.43 15.43z" fill="#fbbecf"/><path d="m80.335 228.068h-27.405c-8.522 0-15.43 2.711-15.43 5.432l-19.466 7.3c-6.336 2.376-10.534 8.433-10.534 15.2s4.198 12.824 10.534 15.2l19.466 7.3-9.645 8.316c-3.4 2.931-5.355 7.198-5.355 11.686 0 8.522 6.908 15.43 15.43 15.43h42.405c23.638 0 47.044-4.656 68.883-13.702l73.322-30.371v-27.719l-73.322-9.698c-21.838-2.888-45.245-4.374-68.883-4.374z" fill="#fbcfdb"/><path d="m60.837 391.056c3.174 3.174 7.573 4.809 12.05 4.477l12.7-.94 147.56-114.127-10.607-10.607-73.322 30.371c-21.839 9.046-41.682 22.305-58.396 39.019l-29.985 29.985c-6.026 6.026-6.026 15.796 0 21.822z" fill="#fbbecf"/><path d="m112.035 360.463-19.378 19.378c-6.026 6.026-8.994 12.828-7.069 14.752l-8.603 18.926c-2.8 6.16-1.485 13.412 3.3 18.197s12.036 6.1 18.197 3.3l18.926-8.603-.94 12.7c-.331 4.477 1.303 8.876 4.477 12.05 6.026 6.026 15.796 6.026 21.821 0l29.985-29.985c16.715-16.715 29.973-36.558 39.019-58.396l30.371-73.322-19.6-19.6-58.704 44.989c-17.485 13.399-35.087 28.899-51.802 45.614z" fill="#fbcfdb"/><path d="m213.498 489.5c4.489 0 8.755-1.955 11.687-5.355l8.316-9.645 23.641-185.041h-15l-30.371 73.322c-9.046 21.839-13.702 45.245-13.702 68.883v42.405c-.001 8.523 6.907 15.431 15.429 15.431z" fill="#fbbecf"/><path d="m228.068 431.665v27.405c0 8.522 2.711 15.43 5.432 15.43l7.3 19.466c2.376 6.336 8.433 10.534 15.2 10.534s12.824-4.198 15.2-10.534l7.3-19.466 8.316 9.645c2.931 3.4 7.198 5.355 11.686 5.355 8.522 0 15.43-6.908 15.43-15.43v-42.405c0-23.638-4.656-47.044-13.702-68.883l-30.371-73.322h-27.719l-9.698 73.322c-2.888 21.838-4.374 45.245-4.374 68.883z" fill="#fbcfdb"/><path d="m391.056 451.163c3.174-3.174 4.809-7.573 4.477-12.05l-.94-12.7-114.127-147.56-10.607 10.607 30.371 73.322c9.046 21.839 22.305 41.682 39.019 58.396l29.985 29.985c6.026 6.026 15.796 6.026 21.822 0z" fill="#fbbecf"/><path d="m360.463 399.965 19.378 19.378c6.026 6.026 12.828 8.994 14.752 7.069l18.926 8.603c6.16 2.8 13.412 1.485 18.197-3.3s6.1-12.036 3.3-18.197l-8.603-18.926 12.7.94c4.477.331 8.876-1.303 12.05-4.477 6.026-6.026 6.026-15.796 0-21.821l-29.985-29.985c-16.715-16.715-36.558-29.973-58.396-39.019l-73.322-30.371-19.6 19.6 44.989 58.704c13.399 17.485 28.899 35.087 45.614 51.802z" fill="#fbcfdb"/><path d="m489.5 298.502c0-4.489-1.955-8.755-5.355-11.687l-9.645-8.315-185.041-23.641v15l73.322 30.371c21.839 9.046 45.245 13.702 68.883 13.702h42.405c8.523 0 15.431-6.908 15.431-15.43z" fill="#fbbecf"/><path d="m431.665 283.932h27.405c8.522 0 15.43-2.711 15.43-5.432l19.466-7.3c6.336-2.376 10.534-8.433 10.534-15.2s-4.198-12.824-10.534-15.2l-19.466-7.3 9.645-8.316c3.4-2.931 5.355-7.198 5.355-11.686 0-8.522-6.908-15.43-15.43-15.43h-42.405c-23.638 0-47.044 4.656-68.883 13.702l-73.322 30.371v27.719l73.322 9.698c21.838 2.888 45.245 4.374 68.883 4.374z" fill="#fbcfdb"/><path d="m451.163 120.944c-3.174-3.174-7.573-4.809-12.05-4.477l-12.7.94-147.56 114.127 10.607 10.607 73.322-30.371c21.839-9.046 41.682-22.305 58.396-39.019l29.985-29.985c6.026-6.026 6.026-15.796 0-21.822z" fill="#fbbecf"/><path d="m399.965 151.537 19.378-19.378c6.026-6.026 8.994-12.828 7.069-14.752l8.603-18.926c2.8-6.16 1.485-13.412-3.3-18.197s-12.036-6.1-18.197-3.3l-18.926 8.603.94-12.7c.331-4.477-1.303-8.876-4.477-12.05-6.026-6.026-15.796-6.026-21.821 0l-29.985 29.985c-16.715 16.715-29.973 36.558-39.019 58.396l-30.371 73.322 19.6 19.6 58.704-44.989c17.485-13.399 35.087-28.899 51.802-45.614z" fill="#fbcfdb"/><circle cx="256" cy="256" fill="#faec8e" r="39.2"/><circle cx="256" cy="216.8" fill="#fbf6c3" r="15"/><circle cx="228.281" cy="228.281" fill="#fbf9e9" r="15"/><circle cx="216.8" cy="256" fill="#fbf6c3" r="15"/><circle cx="228.281" cy="283.719" fill="#fbf9e9" r="15"/><circle cx="256" cy="295.2" fill="#fbf6c3" r="15"/><circle cx="283.718" cy="283.719" fill="#fbf9e9" r="15"/><circle cx="295.2" cy="256" fill="#fbf6c3" r="15"/><circle cx="283.718" cy="228.281" fill="#fbf9e9" r="15"/><path d="m512 256c0-9.838-6.188-18.769-15.399-22.223l-7.622-2.858.064-.055c5.057-4.36 7.957-10.69 7.957-17.366 0-12.644-10.286-22.93-22.93-22.93h-42.405c-6.848 0-13.647.381-20.387 1.114 5.284-4.248 10.361-8.786 15.204-13.628l29.985-29.985c8.939-8.94 8.939-23.487-.001-32.429-4.723-4.721-11.246-7.145-17.906-6.652l-.084.006 3.368-7.41c4.07-8.956 2.131-19.647-4.825-26.604-6.955-6.955-17.645-8.895-26.603-4.823l-7.409 3.368.006-.084c.492-6.659-1.933-13.186-6.653-17.906-4.331-4.331-10.089-6.716-16.214-6.716s-11.883 2.385-16.215 6.716l-29.985 29.985c-4.842 4.842-9.379 9.919-13.627 15.203.732-6.74 1.114-13.539 1.114-20.386v-42.407c0-12.644-10.286-22.93-22.93-22.93-6.677 0-13.006 2.9-17.367 7.958l-.055.063-2.857-7.62c-3.455-9.212-12.386-15.401-22.224-15.401s-18.769 6.189-22.223 15.4l-2.857 7.62-.056-.064c-4.36-5.056-10.689-7.956-17.366-7.956-12.644 0-22.931 10.287-22.931 22.93v42.405c0 6.83.366 13.617 1.095 20.34-4.239-5.27-8.779-10.327-13.608-15.157l-29.985-29.986c-8.941-8.939-23.487-8.939-32.427 0-4.722 4.721-7.146 11.248-6.654 17.908l.006.083-7.409-3.368c-8.955-4.072-19.646-2.133-26.603 4.824-6.958 6.957-8.896 17.648-4.825 26.604l3.368 7.41-.084-.006c-6.665-.497-13.187 1.933-17.907 6.654-8.939 8.94-8.939 23.487 0 32.428l29.985 29.985c4.842 4.842 9.919 9.38 15.203 13.628-6.74-.732-13.539-1.114-20.386-1.114h-42.406c-12.644 0-22.93 10.287-22.93 22.93 0 6.677 2.9 13.006 7.957 17.367l.063.054-7.621 2.858c-9.211 3.454-15.399 12.385-15.399 22.223s6.188 18.769 15.399 22.223l7.622 2.858-.064.055c-5.057 4.36-7.957 10.69-7.957 17.366 0 12.644 10.286 22.93 22.93 22.93h42.405c6.848 0 13.647-.381 20.387-1.114-5.284 4.248-10.361 8.786-15.204 13.628l-29.985 29.985c-8.939 8.94-8.939 23.487.001 32.429 4.723 4.72 11.244 7.141 17.906 6.652l.084-.006-3.368 7.41c-4.07 8.956-2.131 19.647 4.825 26.604 6.955 6.956 17.645 8.894 26.603 4.823l7.409-3.368-.006.084c-.492 6.659 1.933 13.186 6.653 17.906 4.331 4.331 10.089 6.716 16.214 6.716s11.883-2.385 16.215-6.716l29.985-29.985c4.842-4.842 9.379-9.919 13.627-15.203-.732 6.74-1.114 13.539-1.114 20.386v42.405c0 12.644 10.286 22.93 22.93 22.93 6.677 0 13.006-2.9 17.367-7.958l.055-.063 2.857 7.62c3.454 9.211 12.385 15.4 22.223 15.4s18.769-6.189 22.223-15.4l2.857-7.62.056.064c4.36 5.057 10.689 7.957 17.366 7.957 12.644 0 22.931-10.287 22.931-22.93v-42.405c0-6.847-.381-13.646-1.114-20.386 4.248 5.284 8.786 10.36 13.627 15.202l29.985 29.986c4.471 4.47 10.342 6.705 16.214 6.705s11.743-2.235 16.213-6.705c4.722-4.721 7.146-11.248 6.654-17.908l-.006-.083 7.409 3.368c8.955 4.072 19.646 2.133 26.603-4.824 6.958-6.957 8.896-17.648 4.825-26.604l-3.368-7.41.084.006c6.665.491 13.186-1.932 17.907-6.654 8.939-8.94 8.939-23.487 0-32.428l-29.985-29.985c-4.842-4.842-9.918-9.38-15.203-13.628 6.74.732 13.539 1.114 20.386 1.114h42.405c12.644 0 22.93-10.287 22.93-22.93 0-6.677-2.9-13.006-7.957-17.367l-.063-.054 7.621-2.858c9.213-3.451 15.401-12.382 15.401-22.22zm-167.447-159.875 29.984-29.984c1.498-1.498 3.49-2.323 5.608-2.323s4.109.825 5.607 2.323c1.633 1.632 2.471 3.89 2.301 6.192l-.94 12.701c-.195 2.641 1.017 5.19 3.188 6.705 2.173 1.515 4.982 1.772 7.395.676l18.927-8.603c3.295-1.497 7.229-.786 9.789 1.775 2.561 2.56 3.273 6.494 1.775 9.79l-8.603 18.927c-1.096 2.411-.839 5.222.677 7.394 1.517 2.173 4.061 3.382 6.705 3.189l12.7-.94c2.301-.172 4.56.668 6.192 2.301 3.092 3.092 3.092 8.123 0 11.215l-29.984 29.985c-16.101 16.1-34.93 28.681-55.964 37.393l-53.76 22.268c-.278-5.364-2.435-10.649-6.523-14.737-3.97-3.97-9.167-6.247-14.733-6.533l22.264-53.75c8.714-21.035 21.295-39.863 37.395-55.964zm-55.532 182.29c2.925 2.924 2.925 7.683.001 10.606-1.417 1.417-3.301 2.197-5.304 2.197-2.004 0-3.887-.78-5.304-2.197-.697-.697-1.238-1.508-1.609-2.39-.392-.94-.587-1.911-.587-2.913 0-2.003.78-3.886 2.197-5.303 1.416-1.417 3.299-2.197 5.303-2.197 1.001 0 1.973.195 2.871.567-.001.003.062.029.062.029.875.372 1.679.909 2.37 1.601zm-55.437 10.607c-1.416 1.417-3.3 2.197-5.303 2.197s-3.887-.78-5.304-2.197c-1.416-1.417-2.196-3.3-2.196-5.303s.78-3.886 2.197-5.303c.691-.692 1.495-1.229 2.369-1.6l.063-.026c.897-.375 1.869-.57 2.87-.57 2.003 0 3.887.78 5.304 2.197 1.416 1.417 2.196 3.3 2.196 5.303 0 1.002-.195 1.974-.567 2.872-.39.921-.931 1.732-1.629 2.43zm-10.606-55.438c-1.416-1.417-2.196-3.3-2.196-5.303s.78-3.887 2.197-5.304c1.416-1.417 3.3-2.197 5.303-2.197s3.887.78 5.304 2.197c.697.697 1.238 1.508 1.609 2.39.394.952.587 1.918.587 2.913 0 2.003-.78 3.886-2.197 5.303-1.416 1.417-3.3 2.197-5.303 2.197-.99 0-1.95-.192-2.84-.556-.031-.015-.094-.041-.094-.041-.874-.369-1.679-.907-2.37-1.599zm55.438-10.606c1.416-1.417 3.299-2.197 5.303-2.197 2.003 0 3.887.78 5.303 2.197 2.924 2.924 2.924 7.682.001 10.606-.692.692-1.496 1.229-2.37 1.601l-.063.026c-.897.375-1.869.57-2.87.57-2.004 0-3.887-.78-5.304-2.197-1.416-1.417-2.196-3.3-2.196-5.303 0-1.002.195-1.974.567-2.872.39-.922.931-1.733 1.629-2.431zm-10.606 44.83c-1.822 1.822-3.269 3.912-4.355 6.167-2.334-.822-4.842-1.275-7.454-1.275s-5.12.452-7.454 1.275c-1.086-2.255-2.533-4.344-4.354-6.166-1.822-1.822-3.912-3.268-6.166-4.354.822-2.334 1.274-4.842 1.274-7.454s-.452-5.12-1.274-7.454c2.254-1.086 4.344-2.533 6.165-4.354 1.822-1.822 3.269-3.912 4.355-6.167 2.334.822 4.842 1.275 7.454 1.275s5.12-.452 7.454-1.275c1.086 2.255 2.533 4.344 4.354 6.166 1.822 1.822 3.912 3.268 6.166 4.355-.822 2.334-1.274 4.842-1.274 7.454s.452 5.12 1.274 7.454c-2.254 1.085-4.344 2.532-6.165 4.353zm-4.855-48.214c-.025.06-.048.12-.073.18-1.154 2.659-3.803 4.525-6.882 4.525s-5.729-1.867-6.882-4.526c-.024-.059-.047-.119-.072-.178-.349-.865-.546-1.807-.546-2.796 0-4.136 3.364-7.5 7.5-7.5s7.5 3.364 7.5 7.5c0 .989-.197 1.93-.545 2.795zm-46.155 28.906c.986 0 1.926.196 2.789.543.063.026.127.051.19.077 2.657 1.155 4.521 3.802 4.521 6.88s-1.864 5.724-4.521 6.88c-.063.026-.127.051-.19.077-.863.347-1.803.543-2.789.543-4.136 0-7.5-3.364-7.5-7.5s3.364-7.5 7.5-7.5zm32.245 43.906c.025-.06.048-.12.073-.18 1.154-2.659 3.803-4.525 6.882-4.525s5.729 1.867 6.882 4.526c.024.059.047.119.072.178.349.865.546 1.807.546 2.796 0 4.136-3.364 7.5-7.5 7.5s-7.5-3.364-7.5-7.5c0-.989.197-1.93.545-2.795zm46.155-28.906c-.986 0-1.926-.196-2.789-.543-.063-.027-.127-.051-.191-.077-2.656-1.155-4.52-3.802-4.52-6.879s1.864-5.724 4.521-6.879c.063-.026.127-.051.191-.077.863-.347 1.803-.543 2.789-.543 4.136 0 7.5 3.364 7.5 7.5s-3.365 7.498-7.501 7.498zm-199.074-96.053-29.985-29.985c-3.092-3.092-3.092-8.123 0-11.215 1.633-1.633 3.895-2.474 6.192-2.301l12.7.94c2.638.194 5.19-1.017 6.705-3.189 1.516-2.172 1.772-4.983.677-7.394l-8.604-18.927c-1.498-3.295-.784-7.229 1.776-9.789s6.495-3.272 9.789-1.775l18.927 8.603c2.412 1.097 5.222.839 7.395-.676 2.172-1.515 3.384-4.064 3.188-6.705l-.94-12.7c-.17-2.304.668-4.561 2.302-6.194 3.094-3.092 8.124-3.091 11.214 0l29.985 29.985c16.099 16.099 28.68 34.928 37.394 55.963 1.585 3.827 5.971 5.643 9.799 4.059 2.889-1.197 4.633-3.99 4.632-6.934 0-.956-.185-1.928-.573-2.866-8.713-21.035-13.131-43.245-13.131-66.013v-42.404c0-4.373 3.558-7.93 7.931-7.93 2.309 0 4.498 1.003 6.006 2.751l8.315 9.646c1.729 2.006 4.392 2.949 6.996 2.487 2.608-.465 4.777-2.271 5.707-4.75l7.3-19.466c1.271-3.391 4.557-5.668 8.177-5.668s6.906 2.277 8.178 5.667l7.3 19.466c.93 2.48 3.099 4.286 5.707 4.75 2.603.465 5.267-.48 6.996-2.487l8.314-9.645c1.509-1.75 3.698-2.752 6.007-2.752 4.372 0 7.93 3.558 7.93 7.93v42.405c0 22.769-4.418 44.979-13.13 66.013l-22.259 53.737c-3.989-3.594-9.264-5.785-15.043-5.785s-11.054 2.192-15.043 5.785l-10.778-26.02c-1.585-3.826-5.972-5.645-9.799-4.059s-5.645 5.973-4.059 9.799l10.784 26.034c-5.566.286-10.763 2.563-14.733 6.533s-6.247 9.167-6.533 14.733l-53.75-22.264c-21.046-8.719-39.87-21.298-55.963-37.393zm-15.791 138.985h-42.405c-4.372 0-7.93-3.558-7.93-7.93 0-2.309 1.003-4.498 2.752-6.006l9.646-8.316c2.006-1.729 2.951-4.389 2.486-6.996s-2.271-4.777-4.75-5.707l-19.467-7.3c-3.39-1.27-5.667-4.557-5.667-8.177s2.277-6.907 5.667-8.178l19.467-7.3c2.479-.93 4.285-3.099 4.75-5.707s-.48-5.267-2.486-6.997l-9.646-8.315c-1.749-1.508-2.752-3.697-2.752-6.006 0-4.373 3.558-7.93 7.93-7.93h42.405c22.763 0 44.968 4.416 65.999 13.125.014.006 53.751 22.264 53.751 22.264-3.594 3.989-5.785 9.264-5.785 15.043s2.191 11.054 5.785 15.043l-53.736 22.258c-21.036 8.714-43.245 13.132-66.014 13.132zm87.112 109.443-29.984 29.984c-1.498 1.498-3.49 2.323-5.608 2.323s-4.109-.825-5.607-2.323c-1.633-1.632-2.471-3.89-2.301-6.192l.94-12.701c.195-2.641-1.017-5.19-3.188-6.705-2.174-1.516-4.983-1.773-7.395-.676l-18.927 8.603c-3.294 1.497-7.229.785-9.789-1.775s-3.273-6.494-1.775-9.79l8.603-18.927c1.096-2.411.839-5.222-.677-7.394-1.516-2.173-4.068-3.382-6.705-3.189l-12.7.94c-2.302.168-4.56-.669-6.192-2.301-3.092-3.092-3.092-8.123 0-11.215l29.984-29.985c16.101-16.1 34.93-28.681 55.964-37.393l53.75-22.264c.286 5.566 2.563 10.763 6.532 14.733 3.97 3.97 9.168 6.247 14.734 6.533l-22.264 53.75c-8.714 21.035-21.295 39.863-37.395 55.964zm138.986 15.79v42.405c0 4.373-3.558 7.93-7.931 7.93-2.309 0-4.498-1.003-6.006-2.751l-8.315-9.646c-1.729-2.007-4.395-2.95-6.996-2.487-2.608.465-4.777 2.271-5.707 4.75l-7.3 19.466c-1.272 3.391-4.558 5.668-8.178 5.668s-6.906-2.277-8.178-5.667l-7.3-19.466c-.93-2.48-3.099-4.286-5.707-4.75-2.601-.462-5.266.48-6.996 2.487l-8.314 9.645c-1.509 1.749-3.698 2.752-6.007 2.752-4.372 0-7.93-3.558-7.93-7.93v-42.405c0-22.769 4.418-44.979 13.13-66.013l22.259-53.737c3.989 3.594 9.264 5.785 15.043 5.785s11.054-2.192 15.043-5.785l22.259 53.737c8.713 21.034 13.131 43.244 13.131 66.012zm109.441-87.112 29.985 29.985c3.092 3.092 3.092 8.123 0 11.215-1.633 1.633-3.889 2.473-6.192 2.301l-12.7-.94c-2.644-.193-5.189 1.017-6.705 3.189s-1.772 4.983-.677 7.394l8.604 18.927c1.498 3.295.784 7.229-1.776 9.789s-6.494 3.272-9.789 1.775l-18.927-8.603c-2.411-1.096-5.221-.838-7.395.676-2.172 1.515-3.384 4.064-3.188 6.705l.94 12.7c.17 2.304-.668 4.561-2.302 6.194-3.092 3.093-8.122 3.091-11.214 0l-29.985-29.985c-16.099-16.099-28.68-34.928-37.394-55.963l-22.264-53.75c5.566-.286 10.763-2.563 14.734-6.533 4.088-4.088 6.245-9.372 6.523-14.737l53.76 22.268c21.045 8.719 39.868 21.298 55.962 37.393zm75.459-80.375-19.467 7.3c-2.479.93-4.285 3.099-4.75 5.707s.48 5.267 2.486 6.997l9.646 8.315c1.749 1.508 2.752 3.697 2.752 6.006 0 4.373-3.558 7.93-7.93 7.93h-42.405c-22.763 0-44.968-4.416-65.999-13.125-.014-.006-53.751-22.264-53.751-22.264 3.594-3.989 5.785-9.264 5.785-15.043s-2.191-11.054-5.785-15.043l53.736-22.258c21.035-8.713 43.245-13.131 66.014-13.131h42.405c4.372 0 7.93 3.558 7.93 7.93 0 2.309-1.003 4.498-2.752 6.006l-9.646 8.316c-2.006 1.729-2.951 4.389-2.486 6.996s2.271 4.777 4.75 5.707l19.467 7.3c3.39 1.271 5.667 4.558 5.667 8.178s-2.277 6.905-5.667 8.176z"/></g></svg>