<?xml version="1.0" encoding="iso-8859-1"?>
<!-- Generator: Adobe Illustrator 19.0.0, SVG Export Plug-In . SVG Version: 6.00 Build 0)  -->
<svg version="1.1" id="Capa_1" xmlns="http://www.w3.org/2000/svg" xmlns:xlink="http://www.w3.org/1999/xlink" x="0px" y="0px"
	 viewBox="0 0 512 512" style="enable-background:new 0 0 512 512;" xml:space="preserve">
<circle style="fill:#00935C;" cx="255.999" cy="255.998" r="248.443"/>
<path style="fill:#B4DC90;" d="M255.999,7.555c137.212,0,248.445,111.232,248.445,248.444S393.212,504.444,255.999,504.444"/>
<path style="fill:#7ECB75;" d="M255.999,7.555V8.55c126.828,11.214,226.284,117.708,226.284,247.449s-99.456,236.235-226.284,247.45
	v0.995c137.212,0,248.445-111.233,248.445-248.444C504.445,118.787,393.211,7.555,255.999,7.555z"/>
<path style="fill:#EF677E;" d="M255.999,52.113c112.603,0,203.886,91.282,203.886,203.886c0,112.603-91.283,203.886-203.886,203.886
	"/>
<path style="fill:#E63952;" d="M255.999,52.113v1.581c100.583,12.533,178.42,98.327,178.42,202.306
	c0,103.978-77.837,189.772-178.42,202.306v1.581c112.603,0,203.886-91.283,203.886-203.886S368.602,52.113,255.999,52.113z"/>
<path style="fill:#EF677E;" d="M255.999,460.389h-0.504v-2.529l0.441-0.055c101.465-12.643,177.979-99.4,177.979-201.806
	S357.402,66.838,255.937,54.195l-0.441-0.055V51.61h0.504c112.701,0,204.39,91.689,204.39,204.39S368.7,460.389,255.999,460.389z
	 M256.503,458.749v0.633C368.414,459.104,459.382,367.975,459.382,256S368.414,52.896,256.503,52.618v0.633
	c101.745,12.905,178.42,99.988,178.42,202.75S358.248,445.844,256.503,458.749z"/>
<path d="M437.019,74.98C388.667,26.628,324.38,0,255.999,0S123.332,26.628,74.98,74.98S0,187.619,0,255.999
	s26.628,132.667,74.98,181.019S187.619,512,255.999,512s132.667-26.629,181.019-74.981S512,324.38,512,255.999
	S485.371,123.332,437.019,74.98z M198.065,359.053c-1.296-8.019-4.217-15.883-7.041-23.488c-3.293-8.868-6.699-18.038-7.376-27.178
	c-0.588-7.938,1.158-16.514,3.007-25.593c1.757-8.623,3.572-17.539,3.572-26.794c0-9.255-1.816-18.171-3.572-26.793
	c-1.848-9.079-3.595-17.654-3.007-25.591c0.677-9.142,4.083-18.312,7.377-27.179c2.825-7.605,5.745-15.468,7.041-23.486
	c1.493-9.235,1.295-18.231,1.104-26.93c-0.206-9.348-0.399-18.179,1.692-25.464c3.289-11.452,10.136-20.695,16.758-29.634
	c3.622-4.891,7.044-9.51,9.756-14.325l1.174-2.085c6.783-12.062,13.292-23.632,19.896-29.078v461.135
	c-6.603-5.446-13.113-17.016-19.895-29.076l-1.175-2.088c-2.712-4.814-6.134-9.434-9.757-14.326
	c-6.621-8.94-13.469-18.184-16.756-29.634c-2.092-7.285-1.898-16.115-1.692-25.463C199.36,377.282,199.558,368.287,198.065,359.053z
	 M263.555,59.829C368.323,63.815,452.33,150.274,452.33,256s-84.008,192.186-188.776,196.172L263.555,59.829L263.555,59.829z
	 M15.11,255.999c0-64.345,25.057-124.837,70.555-170.334c35.85-35.851,81.013-58.998,130.031-67.208
	c-4.352,2.186-8.629,4.513-12.868,6.824c-3.725,2.03-7.577,4.129-11.321,6.031c-4.295,2.183-8.755,4.219-13.477,6.377
	c-15.924,7.274-32.391,14.795-44.987,28.971c-10.261,11.546-16.013,26.495-21.576,40.953c-2.575,6.69-5.237,13.608-8.301,20.061
	c-2.914,6.138-6.504,12.205-10.306,18.629c-7.691,12.996-15.644,26.435-19.009,42.255c-3.001,14.11-1.555,28.738-0.279,41.644
	c0.385,3.899,3.671,6.813,7.51,6.813c0.249,0,0.5-0.012,0.752-0.037c4.152-0.41,7.185-4.109,6.775-8.261
	c-1.168-11.811-2.491-25.199,0.022-37.014c2.85-13.399,10.161-25.754,17.233-37.702c3.807-6.433,7.744-13.085,10.953-19.845
	c3.309-6.971,6.076-14.161,8.752-21.114c5.313-13.807,10.331-26.847,18.77-36.343c10.478-11.793,25.472-18.641,39.97-25.264
	c4.655-2.126,9.468-4.325,14.044-6.651c3.937-2.001,7.887-4.152,11.705-6.233c5.022-2.737,9.953-5.419,14.869-7.799
	c-3.184,5.041-6.308,10.589-9.55,16.354l-1.169,2.077c-2.248,3.992-5.398,8.244-8.733,12.746
	c-7.076,9.553-15.096,20.38-19.14,34.459c-2.725,9.492-2.496,19.9-2.275,29.967c0.176,8.021,0.359,16.313-0.915,24.186
	c-1.061,6.557-3.6,13.397-6.29,20.638c-3.66,9.856-7.445,20.046-8.28,31.324c-0.742,10.021,1.297,20.037,3.27,29.723
	c1.68,8.252,3.269,16.046,3.269,23.778c0,7.731-1.588,15.525-3.269,23.778c-1.972,9.687-4.012,19.703-3.27,29.725
	c0.836,11.277,4.62,21.468,8.28,31.323c2.69,7.242,5.23,14.082,6.29,20.64c1.273,7.871,1.091,16.164,0.915,24.184
	c-0.222,10.065-0.45,20.472,2.275,29.965c4.043,14.079,12.063,24.906,19.139,34.459c3.334,4.502,6.484,8.753,8.733,12.746
	l1.17,2.079c3.242,5.764,6.364,11.312,9.549,16.352c-4.916-2.381-9.848-5.063-14.87-7.799c-3.82-2.081-7.769-4.234-11.705-6.233
	c-4.576-2.326-9.391-4.525-14.046-6.652c-14.499-6.622-29.49-13.47-39.969-25.263c-8.439-9.496-13.457-22.537-18.77-36.343
	c-2.676-6.954-5.442-14.143-8.752-21.114c-3.209-6.76-7.146-13.412-10.953-19.845c-7.071-11.947-14.382-24.302-17.232-37.699
	c-2.467-11.6-1.325-21.778-0.002-33.565c0.854-7.611,1.737-15.48,1.737-24.475c0-4.172-3.383-7.555-7.555-7.555
	c-4.172,0-7.555,3.383-7.555,7.555c0,8.149-0.835,15.592-1.643,22.79c-1.407,12.548-2.737,24.399,0.239,38.393
	c3.365,15.818,11.318,29.257,19.008,42.251c3.802,6.424,7.392,12.491,10.306,18.629c3.063,6.453,5.726,13.371,8.3,20.061
	c5.563,14.458,11.316,29.407,21.576,40.954c12.596,14.175,29.062,21.697,44.986,28.97c4.722,2.157,9.183,4.195,13.478,6.378
	c3.743,1.902,7.595,4.001,11.321,6.032c4.239,2.31,8.516,4.637,12.868,6.823c-49.018-8.21-94.18-31.357-130.03-67.207
	C40.167,380.837,15.11,320.343,15.11,255.999z M426.335,426.335c-43.713,43.712-101.268,68.542-162.78,70.426v-29.468
	c113.103-3.994,203.886-97.233,203.886-211.292S376.657,48.701,263.555,44.708V15.239c61.512,1.883,119.067,26.713,162.78,70.426
	c45.498,45.498,70.555,105.991,70.555,170.334C496.89,320.343,471.833,380.837,426.335,426.335z"/>
<path d="M335.703,200.186c0,4.77-6.73,8.637-15.033,8.637c-8.303,0-15.033-8.637-15.033-8.637s6.73-8.637,15.033-8.637
	C328.973,191.549,335.703,195.416,335.703,200.186z"/>
<path d="M335.703,255.999c0,4.77-6.73,8.637-15.033,8.637c-8.303,0-15.033-8.637-15.033-8.637s6.73-8.637,15.033-8.637
	C328.973,247.362,335.703,251.23,335.703,255.999z"/>
<path d="M335.703,311.814c0,4.77-6.73,8.637-15.033,8.637c-8.303,0-15.033-8.637-15.033-8.637s6.73-8.637,15.033-8.637
	C328.973,303.177,335.703,307.043,335.703,311.814z"/>
<path d="M385.98,228.093c0,4.77-6.73,8.637-15.033,8.637s-15.033-8.637-15.033-8.637s6.73-8.637,15.033-8.637
	C379.25,219.456,385.98,223.323,385.98,228.093z"/>
<path d="M385.98,283.907c0,4.77-6.73,8.637-15.033,8.637s-15.033-8.637-15.033-8.637s6.73-8.637,15.033-8.637
	S385.98,279.136,385.98,283.907z"/>
<g>
</g>
<g>
</g>
<g>
</g>
<g>
</g>
<g>
</g>
<g>
</g>
<g>
</g>
<g>
</g>
<g>
</g>
<g>
</g>
<g>
</g>
<g>
</g>
<g>
</g>
<g>
</g>
<g>
</g>
</svg>
